<svg width="14" height="14" viewBox="0 0 14 14" fill="none" xmlns="http://www.w3.org/2000/svg">
<path d="M8.14645 2.89645C7.95119 3.09171 7.95119 3.40829 8.14645 3.60355C8.34171 3.79882 8.65829 3.79882 8.85355 3.60355L8.14645 2.89645ZM10.75 1L11.1036 0.646447C11.0098 0.552679 10.8826 0.5 10.75 0.5C10.6174 0.5 10.4902 0.552679 10.3964 0.646447L10.75 1ZM12.6464 3.60355C12.8417 3.79882 13.1583 3.79882 13.3536 3.60355C13.5488 3.40829 13.5488 3.09171 13.3536 2.89645L12.6464 3.60355ZM10.25 13C10.25 13.2761 10.4739 13.5 10.75 13.5C11.0261 13.5 11.25 13.2761 11.25 13H10.25ZM5.85355 11.1036C6.04882 10.9083 6.04882 10.5917 5.85355 10.3964C5.65829 10.2012 5.34171 10.2012 5.14645 10.3964L5.85355 11.1036ZM3.25 13L2.89645 13.3536C3.09171 13.5488 3.40829 13.5488 3.60355 13.3536L3.25 13ZM1.35355 10.3964C1.15829 10.2012 0.841709 10.2012 0.646447 10.3964C0.451184 10.5917 0.451184 10.9083 0.646447 11.1036L1.35355 10.3964ZM3.75 1C3.75 0.723858 3.52614 0.5 3.25 0.5C2.97386 0.5 2.75 0.723858 2.75 1L3.75 1ZM8.85355 3.60355L11.1036 1.35355L10.3964 0.646447L8.14645 2.89645L8.85355 3.60355ZM10.3964 1.35355L12.6464 3.60355L13.3536 2.89645L11.1036 0.646447L10.3964 1.35355ZM10.25 1L10.25 13H11.25L11.25 1L10.25 1ZM5.14645 10.3964L2.89645 12.6464L3.60355 13.3536L5.85355 11.1036L5.14645 10.3964ZM3.60355 12.6464L1.35355 10.3964L0.646447 11.1036L2.89645 13.3536L3.60355 12.6464ZM3.75 13L3.75 1L2.75 1L2.75 13H3.75Z" fill="white"/>
</svg>
